<?xml version="1.0" encoding="UTF-8" standalone="no"?> <svg id="Layer_1" data-name="Layer 1" xmlns="http://www.w3.org/2000/svg" viewBox="0 0 128 128"><defs><style>.cls-1{fill:#bd272f;}</style></defs><title>n</title><path class="cls-1" d="M125.52207,52.77343c-5.63376-10.26688-11.19685-24.169-17.30838-33.27971a9.23779,9.23779,0,0,0-3.21119-2.95116C99.6401,13.5914,91.90882,9.87135,86.77258,7.47424a26.86831,26.86831,0,0,1-3.88966,5.11366,25.36693,25.36693,0,0,1-18.69921,7.65774h-.36743A25.36693,25.36693,0,0,1,45.11708,12.5879a26.86831,26.86831,0,0,1-3.88966-5.11366C36.09118,9.87135,28.35994,13.5914,22.9975,16.54257a9.23809,9.23809,0,0,0-3.21119,2.95116C13.67478,28.60444,8.11169,42.50656,2.47793,52.77343a1.098,1.098,0,0,0,.39289,1.46993c6.09456,3.68895,8.14681,4.58786,15.31549,8.42381a1.09716,1.09716,0,0,0,1.501-.48337l8.192-16.62433a360.74057,360.74057,0,0,1,0,74.96628h72.24127a360.74058,360.74058,0,0,1,0-74.96628l8.192,16.62433a1.09715,1.09715,0,0,0,1.501.48337c7.16868-3.83595,9.22093-4.73486,15.31549-8.42381A1.098,1.098,0,0,0,125.52207,52.77343Z"/></svg>